<?xml version="1.0" standalone="no"?>
<!DOCTYPE svg PUBLIC "-//W3C//DTD SVG 20010904//EN"
 "http://www.w3.org/TR/2001/REC-SVG-20010904/DTD/svg10.dtd">
<svg version="1.0" xmlns="http://www.w3.org/2000/svg"
 width="820.000000pt" height="600.000000pt" viewBox="0 0 820.000000 600.000000"
 preserveAspectRatio="xMidYMid meet">

<g transform="translate(0.000000,600.000000) scale(0.100000,-0.100000)"
fill="#000000" stroke="none">
<path d="M3330 5120 c0 -462 -3 -840 -7 -840 -6 0 -601 304 -1008 515 -392
203 -455 235 -464 235 -6 0 -167 -311 -357 -691 -264 -528 -342 -694 -332
-700 7 -5 150 -80 318 -166 168 -86 395 -203 505 -260 110 -57 246 -127 303
-156 56 -28 102 -54 102 -57 0 -3 -46 -29 -102 -57 -57 -29 -193 -99 -303
-156 -110 -57 -337 -174 -505 -260 -168 -86 -311 -161 -318 -165 -10 -7 67
-171 332 -701 190 -380 351 -691 357 -691 6 0 71 31 143 69 72 38 230 119 351
181 121 62 256 132 300 155 160 84 672 345 678 345 4 0 7 -378 7 -840 l0 -840
770 0 770 0 0 840 c0 462 3 840 6 840 6 0 301 -150 609 -310 424 -220 855
-440 863 -440 6 0 166 311 357 691 270 538 344 693 334 700 -8 5 -287 149
-621 321 -335 172 -608 315 -608 318 0 3 273 146 608 318 334 172 613 316 621
321 10 7 -64 162 -334 700 -191 380 -352 691 -357 691 -6 0 -162 -78 -347
-174 -769 -397 -1119 -576 -1125 -576 -3 0 -6 378 -6 840 l0 840 -770 0 -770
0 0 -840z"/>
</g>
</svg>
